<svg id="Layer_1" data-name="Layer 1" xmlns="http://www.w3.org/2000/svg" xmlns:xlink="http://www.w3.org/1999/xlink" viewBox="0 0 518 313.26"><defs><style>.cls-1{fill:none;}.cls-2{clip-path:url(#clip-path);}.cls-3{fill:#46b29d;}.cls-4{fill:#28685c;}.cls-5{fill:#fff;}.cls-6{fill:#08b772;}.cls-7{fill:#d6bf01;}.cls-8{fill:#e8ce00;}.cls-9{clip-path:url(#clip-path-2);}.cls-10{fill:#fde803;}.cls-11{fill:#fdf061;}.cls-12{fill:#fdd7ad;}</style><clipPath id="clip-path" transform="translate(-544 -188.39)"><rect class="cls-1" x="846.82" y="228" width="215.18" height="225.11"/></clipPath><clipPath id="clip-path-2" transform="translate(-544 -188.39)"><rect class="cls-1" x="544" y="188.15" width="313.5" height="314.23"/></clipPath></defs><title>banana</title><g class="cls-2"><path class="cls-3" d="M867.06,250.07v89.31L970.85,446A9.3,9.3,0,0,0,984,446l75.27-75.29a9.27,9.27,0,0,0,0-13.15L952.68,250.07Zm36.78,51.49a14.71,14.71,0,1,1,14.71-14.71,14.71,14.71,0,0,1-14.71,14.71Zm0,0" transform="translate(-544 -188.39)"/></g><path class="cls-4" d="M903.84,257.43a29.42,29.42,0,1,0,29.42,29.42,29.43,29.43,0,0,0-29.42-29.42Zm0,44.13a14.71,14.71,0,1,1,14.71-14.71,14.71,14.71,0,0,1-14.71,14.71Zm0,0" transform="translate(-544 -188.39)"/><path class="cls-5" d="M1007.65,369.45A27.41,27.41,0,0,1,960,386.63a3.67,3.67,0,0,1,5.43-4.94,20.05,20.05,0,0,0,34.86-14.25,10.82,10.82,0,0,0-3.7-7.78,12.05,12.05,0,0,0-8.87-3l-39.19,3a19.4,19.4,0,0,1-14.34-4.82,18.13,18.13,0,0,1-6.17-13,27.41,27.41,0,0,1,47.65-19.46,3.68,3.68,0,1,1-5.45,4.94,20,20,0,0,0-34.86,14.25,10.83,10.83,0,0,0,3.72,7.78,12,12,0,0,0,8.87,3l39.19-3a19.36,19.36,0,0,1,14.34,4.82,18.12,18.12,0,0,1,6.16,13c0,.76,0,1.53,0,2.28Zm0,0" transform="translate(-544 -188.39)"/><path class="cls-5" d="M1005,391.5a3.64,3.64,0,0,1-1.2,2.53,3.68,3.68,0,0,1-5.2-.24l-65.92-72.36a3.68,3.68,0,1,1,5.44-4.94l65.92,72.36a3.67,3.67,0,0,1,1,2.65Zm0,0" transform="translate(-544 -188.39)"/><path class="cls-6" d="M857.26,345a156.69,156.69,0,0,1-215.19,145.3,156.79,156.79,0,0,0-96.56-123.57A156.63,156.63,0,1,1,857.26,345Zm0,0" transform="translate(-544 -188.39)"/><path class="cls-7" d="M789.93,251.36a155.88,155.88,0,0,1-4.8,93.06C756.82,421.11,655.69,460.58,576,439.88a155.84,155.84,0,0,1-30.68-74.5c79.27,26.43,166.53-14.59,196.15-93.54,3.23-8.61,7.79-17.72,9.44-26.45,1.41-7.44,7-11.44,14.12-8.81L782.31,243a12.22,12.22,0,0,1,7.61,8.41Zm0,0" transform="translate(-544 -188.39)"/><path class="cls-8" d="M744.66,290.65c3.28-8.75,7.92-18,9.6-26.88,1.43-7.56,7.12-11.63,14.35-9l17.56,6.48a12.44,12.44,0,0,1,7.07,6.64,155.87,155.87,0,0,1-8.12,76.49C756.82,421.11,655.69,460.58,576,439.88a156.05,156.05,0,0,1-26.27-52.79C629.09,411,715.1,369.41,744.66,290.65Zm0,0" transform="translate(-544 -188.39)"/><g class="cls-9"><path class="cls-10" d="M753.24,275a157.65,157.65,0,0,0-2.17-27,12.24,12.24,0,0,1,12.06-14.28h18.42A12.22,12.22,0,0,1,791.61,239a155.86,155.86,0,0,1,27.71,89c0,86.17-90.23,161.57-176.43,162.73a157.15,157.15,0,0,1-74.17-61.17c-.3-.47,17,1.13,26.28,1.22,86.53.87,157.77-69.22,158.24-155.76Zm0,0" transform="translate(-544 -188.39)"/><path class="cls-11" d="M798.79,204.09l-1.23,6.29-6.3,39.34a162.42,162.42,0,0,1-6.55,90.42c-28.21,76.44-125.84,117.4-207,102a157.37,157.37,0,0,1-9.4-13.22q6.16.75,12.46,1,7,.7,14.19.79c86.53.87,157.77-69.23,158.24-155.76a157.65,157.65,0,0,0-2.17-27,12.16,12.16,0,0,1,.4-5.72h0l0-.06a12.32,12.32,0,0,1,1-2.2L773,192.69a7.14,7.14,0,0,1,10.19-3.29l12.19,7.24a7.15,7.15,0,0,1,3.38,7.46Zm0,0" transform="translate(-544 -188.39)"/><path class="cls-10" d="M751.47,242.27h0l0-.06a12.32,12.32,0,0,1,1-2.2L773,192.69a7.14,7.14,0,0,1,10.19-3.29l12.19,7.24a7.27,7.27,0,0,1,1,.7,11.55,11.55,0,0,0-11.82,6.88l-31.35,72.11c0-.45,0-.91,0-1.36a157.42,157.42,0,0,0-2.17-27,12.16,12.16,0,0,1,.4-5.72Zm0,0" transform="translate(-544 -188.39)"/></g><path class="cls-12" d="M901.83,285.33C866.59,276,836,241.27,803.25,245.75c-15.25,1.5-33.67-2.41-48.68-6.37a2.91,2.91,0,0,1-.83-2,2.84,2.84,0,0,1,4.84-2c13.4,3.53,31.82,6.95,45.65,5.9,36.52-2.77,62.76,29.36,99.6,39.07,0,.56,3.49.83,1.5,4C904.56,285.56,903.17,285.33,901.83,285.33Zm5.48-5.39" transform="translate(-544 -188.39)"/></svg>