<svg id="Layer_1" data-name="Layer 1" xmlns="http://www.w3.org/2000/svg" xmlns:xlink="http://www.w3.org/1999/xlink" viewBox="0 0 1207.29 313.26"><defs><style>.cls-1{fill:none;}.cls-2{clip-path:url(#clip-path);}.cls-3{fill:#46b29d;}.cls-4{fill:#28685c;}.cls-5{fill:#fff;}.cls-6{fill:#08b772;}.cls-7{fill:#d6bf01;}.cls-8{fill:#e8ce00;}.cls-9{clip-path:url(#clip-path-2);}.cls-10{fill:#fde803;}.cls-11{fill:#fdf061;}.cls-12{fill:#fdd7ad;}</style><clipPath id="clip-path" transform="translate(-80.52 -197.66)"><rect class="cls-1" x="383.34" y="237.27" width="215.18" height="225.11"/></clipPath><clipPath id="clip-path-2" transform="translate(-80.52 -197.66)"><rect class="cls-1" x="80.52" y="197.42" width="313.5" height="314.23"/></clipPath></defs><title>banana</title><g class="cls-2"><path class="cls-3" d="M403.58,259.34v89.31l103.79,106.6a9.3,9.3,0,0,0,13.15,0L595.79,380a9.27,9.27,0,0,0,0-13.15L489.2,259.34Zm36.78,51.49a14.71,14.71,0,1,1,14.71-14.71,14.71,14.71,0,0,1-14.71,14.71Zm0,0" transform="translate(-80.52 -197.66)"/></g><path class="cls-4" d="M440.36,266.7a29.42,29.42,0,1,0,29.42,29.42,29.43,29.43,0,0,0-29.42-29.42Zm0,44.13a14.71,14.71,0,1,1,14.71-14.71,14.71,14.71,0,0,1-14.71,14.71Zm0,0" transform="translate(-80.52 -197.66)"/><path class="cls-5" d="M544.17,378.72a27.41,27.41,0,0,1-47.64,17.18A3.67,3.67,0,1,1,502,391a20.05,20.05,0,0,0,34.86-14.25,10.82,10.82,0,0,0-3.7-7.78,12.05,12.05,0,0,0-8.87-3l-39.19,3a19.4,19.4,0,0,1-14.34-4.82,18.13,18.13,0,0,1-6.17-13,27.41,27.41,0,0,1,47.65-19.46,3.68,3.68,0,0,1-5.45,4.94A20,20,0,0,0,471.9,350.9a10.83,10.83,0,0,0,3.72,7.78,12,12,0,0,0,8.87,3l39.19-3A19.36,19.36,0,0,1,538,363.44a18.12,18.12,0,0,1,6.16,13c0,.76,0,1.53,0,2.28Zm0,0" transform="translate(-80.52 -197.66)"/><path class="cls-5" d="M541.56,400.77a3.64,3.64,0,0,1-1.2,2.53,3.68,3.68,0,0,1-5.2-.24l-65.92-72.36a3.68,3.68,0,1,1,5.44-4.94l65.92,72.36a3.67,3.67,0,0,1,1,2.65Zm0,0" transform="translate(-80.52 -197.66)"/><path class="cls-6" d="M393.78,354.29a156.69,156.69,0,0,1-215.19,145.3A156.79,156.79,0,0,0,82,376a156.63,156.63,0,1,1,311.75-21.73Zm0,0" transform="translate(-80.52 -197.66)"/><path class="cls-7" d="M326.45,260.63a155.88,155.88,0,0,1-4.8,93.06c-28.3,76.69-129.43,116.16-209.12,95.46a155.84,155.84,0,0,1-30.68-74.5c79.27,26.43,166.53-14.59,196.15-93.54,3.23-8.61,7.79-17.72,9.44-26.45,1.41-7.44,7-11.44,14.12-8.81l17.28,6.38a12.22,12.22,0,0,1,7.61,8.41Zm0,0" transform="translate(-80.52 -197.66)"/><path class="cls-8" d="M281.19,299.92c3.28-8.75,7.92-18,9.6-26.88,1.43-7.56,7.12-11.63,14.35-9l17.56,6.48a12.44,12.44,0,0,1,7.07,6.64,155.87,155.87,0,0,1-8.12,76.49c-28.3,76.69-129.43,116.16-209.12,95.46a156.05,156.05,0,0,1-26.27-52.79c79.36,23.93,165.38-17.69,194.93-96.45Zm0,0" transform="translate(-80.52 -197.66)"/><g class="cls-9"><path class="cls-10" d="M289.77,284.22a157.65,157.65,0,0,0-2.17-27A12.24,12.24,0,0,1,299.66,243h18.42a12.22,12.22,0,0,1,10.05,5.25,155.86,155.86,0,0,1,27.71,89c0,86.17-90.23,161.57-176.43,162.73a157.15,157.15,0,0,1-74.17-61.17c-.3-.47,17,1.13,26.28,1.22,86.53.87,157.77-69.22,158.24-155.76Zm0,0" transform="translate(-80.52 -197.66)"/><path class="cls-11" d="M335.31,213.36l-1.23,6.29L327.78,259a162.42,162.42,0,0,1-6.55,90.42c-28.21,76.44-125.84,117.4-207,102a157.37,157.37,0,0,1-9.4-13.22q6.16.75,12.46,1,7,.7,14.19.79c86.53.87,157.77-69.23,158.24-155.76a157.65,157.65,0,0,0-2.17-27,12.16,12.16,0,0,1,.4-5.72h0l0-.06a12.32,12.32,0,0,1,1-2.2L309.55,202a7.14,7.14,0,0,1,10.19-3.29l12.19,7.24a7.15,7.15,0,0,1,3.38,7.46Zm0,0" transform="translate(-80.52 -197.66)"/><path class="cls-10" d="M288,251.54h0l0-.06a12.32,12.32,0,0,1,1-2.2L309.55,202a7.14,7.14,0,0,1,10.19-3.29l12.19,7.24a7.27,7.27,0,0,1,1,.7,11.55,11.55,0,0,0-11.82,6.88l-31.35,72.11c0-.45,0-.91,0-1.36a157.42,157.42,0,0,0-2.17-27,12.16,12.16,0,0,1,.4-5.72Zm0,0" transform="translate(-80.52 -197.66)"/></g><path class="cls-12" d="M438.36,294.6c-35.24-9.29-65.83-44.07-98.58-39.58-15.25,1.5-33.67-2.41-48.68-6.37a2.91,2.91,0,0,1-.83-2,2.84,2.84,0,0,1,4.84-2c13.4,3.53,31.82,6.95,45.65,5.9,36.52-2.77,62.76,29.36,99.6,39.07,0,.56,3.49.83,1.5,4C441.09,294.83,439.69,294.6,438.36,294.6Zm5.48-5.39" transform="translate(-80.52 -197.66)"/><path class="cls-6" d="M695.68,383.55v90.61c0,6.66.16,14.25.62,19.36H684.06l-.62-13h-.31c-4.18,8.36-13.32,14.71-25.56,14.71-18.12,0-32.06-15.33-32.06-38.1-.15-24.94,15.33-40.27,33.61-40.27,11.46,0,19.21,5.42,22.61,11.46H682V383.55ZM682,449.07a24,24,0,0,0-.62-5.73,20,20,0,0,0-19.67-15.8c-14.1,0-22.46,12.39-22.46,29,0,15.18,7.43,27.73,22.15,27.73,9.14,0,17.5-6,20-16.26a23.66,23.66,0,0,0,.62-5.89Z" transform="translate(-80.52 -197.66)"/><path class="cls-6" d="M725.88,458.52c.31,18.43,12.08,26,25.71,26,9.76,0,15.64-1.7,20.75-3.87l2.32,9.76c-4.8,2.17-13,4.65-24.94,4.65-23.08,0-36.86-15.18-36.86-37.79s13.32-40.43,35.16-40.43c24.47,0,31,21.53,31,35.32a51.55,51.55,0,0,1-.46,6.35Zm40-9.76c.15-8.67-3.56-22.15-18.9-22.15-13.79,0-19.83,12.7-20.91,22.15Z" transform="translate(-80.52 -197.66)"/><path class="cls-8" d="M829.19,390.52a130.57,130.57,0,0,1,24.63-2.17c13.48,0,22.15,2.32,28.66,7.59,5.42,4,8.67,10.22,8.67,18.43,0,10.07-6.66,18.9-17.66,22.92v.31C883.4,440.09,895,448.3,895,463.79a28.14,28.14,0,0,1-8.83,20.91c-7.28,6.66-19.05,9.76-36.09,9.76a157.62,157.62,0,0,1-20.91-1.24Zm13.48,42.75H854.9c14.25,0,22.61-7.43,22.61-17.5,0-12.24-9.29-17-22.92-17a57.79,57.79,0,0,0-11.93.93Zm0,50a72,72,0,0,0,11.31.62c13.94,0,26.8-5.11,26.8-20.29,0-14.25-12.24-20.14-27-20.14H842.66Z" transform="translate(-80.52 -197.66)"/><path class="cls-8" d="M954.18,493.53l-1.08-9.45h-.46c-4.18,5.89-12.24,11.15-22.92,11.15-15.18,0-22.92-10.69-22.92-21.53,0-18.12,16.11-28,45.07-27.88v-1.55c0-6.2-1.7-17.35-17-17.35a37.36,37.36,0,0,0-19.52,5.58l-3.1-9c6.2-4,15.18-6.66,24.63-6.66,22.92,0,28.5,15.64,28.5,30.67v28a105.52,105.52,0,0,0,1.24,18Zm-2-38.26c-14.87-.31-31.75,2.32-31.75,16.88,0,8.83,5.89,13,12.86,13a18.65,18.65,0,0,0,18.12-12.55,14.23,14.23,0,0,0,.77-4.34Z" transform="translate(-80.52 -197.66)"/><path class="cls-8" d="M987.33,438.85c0-7.75-.15-14.1-.62-20.29h12.08l.77,12.39h.31c3.72-7.12,12.39-14.1,24.78-14.1,10.38,0,26.49,6.2,26.49,31.91v44.76h-13.63V450.31c0-12.08-4.49-22.15-17.35-22.15-9,0-16,6.35-18.28,13.94a19.58,19.58,0,0,0-.93,6.35v45.07H987.33Z" transform="translate(-80.52 -197.66)"/><path class="cls-8" d="M1114.8,493.53l-1.08-9.45h-.46c-4.18,5.89-12.24,11.15-22.92,11.15-15.18,0-22.92-10.69-22.92-21.53,0-18.12,16.11-28,45.07-27.88v-1.55c0-6.2-1.7-17.35-17-17.35a37.36,37.36,0,0,0-19.52,5.58l-3.1-9c6.2-4,15.18-6.66,24.63-6.66,22.92,0,28.5,15.64,28.5,30.67v28a105.52,105.52,0,0,0,1.24,18Zm-2-38.26c-14.87-.31-31.75,2.32-31.75,16.88,0,8.83,5.89,13,12.86,13A18.65,18.65,0,0,0,1112,472.62a14.23,14.23,0,0,0,.77-4.34Z" transform="translate(-80.52 -197.66)"/><path class="cls-8" d="M1147.94,438.85c0-7.75-.15-14.1-.62-20.29h12.08l.77,12.39h.31c3.72-7.12,12.39-14.1,24.78-14.1,10.38,0,26.49,6.2,26.49,31.91v44.76h-13.63V450.31c0-12.08-4.49-22.15-17.35-22.15-9,0-16,6.35-18.28,13.94a19.58,19.58,0,0,0-.93,6.35v45.07h-13.63Z" transform="translate(-80.52 -197.66)"/><path class="cls-8" d="M1275.42,493.53l-1.08-9.45h-.46c-4.18,5.89-12.24,11.15-22.92,11.15-15.18,0-22.92-10.69-22.92-21.53,0-18.12,16.11-28,45.07-27.88v-1.55c0-6.2-1.7-17.35-17-17.35a37.36,37.36,0,0,0-19.52,5.58l-3.1-9c6.2-4,15.18-6.66,24.63-6.66,22.92,0,28.5,15.64,28.5,30.67v28a105.52,105.52,0,0,0,1.24,18Zm-2-38.26c-14.87-.31-31.75,2.32-31.75,16.88,0,8.83,5.89,13,12.86,13a18.65,18.65,0,0,0,18.12-12.55,14.23,14.23,0,0,0,.77-4.34Z" transform="translate(-80.52 -197.66)"/><path class="cls-6" d="M632.5,216.45a185.46,185.46,0,0,1,30.72-2.39c15.82,0,27.41,3.68,34.76,10.3,6.8,5.89,10.85,14.9,10.85,25.93,0,11.22-3.31,20-9.56,26.49-8.46,9-22.26,13.61-37.89,13.61a55.06,55.06,0,0,1-12.87-1.1v49.66h-16Zm16,59.78a53.68,53.68,0,0,0,13.24,1.29c19.31,0,31.08-9.38,31.08-26.49,0-16.37-11.59-24.28-29.25-24.28-7,0-12.32.55-15.08,1.29Z" transform="translate(-80.52 -197.66)"/><path class="cls-6" d="M726.86,277.7c0-10.48-.18-19.5-.74-27.77h14.16l.55,17.47h.74c4-12,13.79-19.5,24.65-19.5a17.49,17.49,0,0,1,4.6.55v15.27a24.29,24.29,0,0,0-5.52-.55c-11.4,0-19.5,8.64-21.7,20.78a45.64,45.64,0,0,0-.74,7.54v47.45h-16Z" transform="translate(-80.52 -197.66)"/><path class="cls-6" d="M794.18,297.38c.37,21.89,14.35,30.9,30.53,30.9,11.59,0,18.58-2,24.65-4.6l2.76,11.59c-5.7,2.58-15.45,5.52-29.61,5.52-27.41,0-43.78-18-43.78-44.88s15.82-48,41.75-48c29.06,0,36.79,25.57,36.79,41.94a61.13,61.13,0,0,1-.55,7.54Zm47.45-11.59c.18-10.3-4.23-26.3-22.44-26.3-16.37,0-23.54,15.08-24.83,26.3Z" transform="translate(-80.52 -197.66)"/><path class="cls-6" d="M940.77,335.64c-4.23,2.21-13.61,5.15-25.57,5.15-26.85,0-44.33-18.21-44.33-45.43,0-27.41,18.76-47.27,47.82-47.27,9.56,0,18,2.39,22.44,4.6l-3.68,12.51c-3.86-2.21-9.93-4.23-18.76-4.23-20.42,0-31.45,15.08-31.45,33.66,0,20.6,13.24,33.29,30.9,33.29A46,46,0,0,0,938,323.5Z" transform="translate(-80.52 -197.66)"/><path class="cls-6" d="M977.73,224.91c.18,5.52-3.86,9.93-10.3,9.93a9.62,9.62,0,0,1-9.75-9.93,9.86,9.86,0,0,1,10.12-10.12C973.87,214.79,977.73,219.21,977.73,224.91Zm-18,114v-89h16.19v89Z" transform="translate(-80.52 -197.66)"/><path class="cls-6" d="M1002.75,274c0-9.2-.18-16.74-.74-24.09h14.35l.92,14.71h.37c4.41-8.46,14.71-16.74,29.43-16.74,12.32,0,31.45,7.36,31.45,37.89v53.16h-16.19V287.63c0-14.35-5.33-26.3-20.6-26.3-10.67,0-18.94,7.54-21.7,16.55a23.28,23.28,0,0,0-1.1,7.54v53.52h-16.19Z" transform="translate(-80.52 -197.66)"/><path class="cls-6" d="M1104.83,208.36H1121V263.9h.37A30,30,0,0,1,1133,252.5a33.31,33.31,0,0,1,16.55-4.6c12,0,31.08,7.36,31.08,38.07v53h-16.19V287.81c0-14.35-5.33-26.49-20.6-26.49-10.48,0-18.76,7.36-21.7,16.19a19.61,19.61,0,0,0-1.1,7.73v53.71h-16.19Z" transform="translate(-80.52 -197.66)"/><path class="cls-6" d="M1287.46,293.7c0,32.92-22.81,47.27-44.33,47.27-24.09,0-42.67-17.66-42.67-45.8,0-29.8,19.5-47.27,44.14-47.27C1270.17,247.9,1287.46,266.48,1287.46,293.7Zm-70.63.92c0,19.5,11.22,34.21,27,34.21,15.45,0,27-14.53,27-34.58,0-15.08-7.54-34.21-26.67-34.21S1216.84,277.7,1216.84,294.62Z" transform="translate(-80.52 -197.66)"/></svg>